<?xml version="1.0" encoding="UTF-8"?>
<svg width="125px" height="71px" viewBox="0 0 125 71" version="1.1" xmlns="http://www.w3.org/2000/svg" xmlns:xlink="http://www.w3.org/1999/xlink">
    <!-- Generator: Sketch 51.3 (57544) - http://www.bohemiancoding.com/sketch -->
    <title>accesory-3</title>
    <desc>Created with Sketch.</desc>
    <defs></defs>
    <g id="accesory-3" stroke="none" stroke-width="1" fill="none" fill-rule="evenodd">
        <g fill-rule="nonzero">
            <path d="M61.7396016,35.2407871 C61.9803945,37.0971423 61.1437,39.0424971 59.2295182,40.2803499 C30.4494042,57.9350504 14.6697731,67.661003 11.890625,69.4582076 C7.72190281,72.1540145 0,69.4582076 0,62.1452468 L0,8.33632747 C0,1.02336665 7.72190281,-1.67244024 11.890625,1.02336665 C14.6697731,2.82057125 30.4494042,12.5465238 59.2295182,30.2012243 C61.1437,31.4390771 61.9803945,33.3844319 61.7396016,35.2407871 Z" id="Combined-Shape" fill="#FF7965"></path>
            <path d="M124.739602,35.2407871 C124.980394,37.0971423 124.1437,39.0424971 122.229518,40.2803499 C93.4494042,57.9350504 77.6697731,67.661003 74.890625,69.4582076 C70.7219028,72.1540145 63,69.4582076 63,62.1452468 L63,8.33632747 C63,1.02336665 70.7219028,-1.67244024 74.890625,1.02336665 C77.6697731,2.82057125 93.4494042,12.5465238 122.229518,30.2012243 C124.1437,31.4390771 124.980394,33.3844319 124.739602,35.2407871 Z" id="Combined-Shape" fill="#FF7965" transform="translate(93.889980, 35.240787) scale(-1, 1) translate(-93.889980, -35.240787) "></path>
            <rect id="Path" fill="#D66554" x="49.25" y="23.25" width="24.75" height="24.75" rx="1"></rect>
        </g>
    </g>
</svg>