<?xml version="1.0" encoding="UTF-8"?>
<svg width="284px" height="127px" viewBox="0 0 284 127" version="1.1" xmlns="http://www.w3.org/2000/svg" xmlns:xlink="http://www.w3.org/1999/xlink">
    <!-- Generator: Sketch 51.3 (57544) - http://www.bohemiancoding.com/sketch -->
    <title>accessory-4</title>
    <desc>Created with Sketch.</desc>
    <defs></defs>
    <g id="accessory-4" stroke="none" stroke-width="1" fill="none" fill-rule="evenodd">
        <g>
            <ellipse id="Oval-3" fill="#4A4A4A" cx="141.5" cy="94" rx="141.5" ry="29"></ellipse>
            <path d="M143.95459,7.12247226 C149.788627,7.04923712 168.525263,0 180.657227,0 C188.787435,0 195.692383,8.09179687 201.37207,24.2753906 C212.39681,64.4003906 217.90918,87.1497396 217.90918,92.5234375 C217.90918,99.130666 205.090983,103.475718 179.45459,105.558594 L108.45459,105.558594 C82.8181966,103.475718 70,99.130666 70,92.5234375 C70,87.1497396 75.5123698,64.4003906 86.5371094,24.2753906 C92.2167969,8.09179688 99.1217448,0 107.251953,0 C119.383917,0 138.120553,7.04923712 143.95459,7.12247226 Z" id="Combined-Shape-Copy" fill="#333333"></path>
            <path d="M0.285485855,95.8571809 C4.95773822,111.008031 66.3957014,123 141.5,123 C218.63615,123 281.356512,110.350399 282.968225,94.6207585 C283.180359,95.6906654 283.190951,96.8170792 283,98 C280.415576,114.010249 219.648292,127 141.5,127 C63.3517079,127 0,114.016258 0,98 C0,97.2618454 0.0951622531,96.5475734 0.285486759,95.8571838 L0.285485855,95.8571809 Z" id="Combined-Shape" fill="#333333"></path>
            <path d="M213.745739,72.3108473 C216.521366,83.7562653 217.90918,90.8271287 217.90918,93.5234375 C217.90918,100.130666 205.090983,104.475718 179.45459,106.558594 L108.45459,106.558594 C82.8181966,104.475718 70,100.130666 70,93.5234375 C70,90.8271287 71.3878135,83.7562653 74.1634404,72.3108473 C79.823278,75.7451565 91.2536612,78.1610728 108.45459,79.5585938 L179.45459,79.5585938 C196.655519,78.1610728 208.085902,75.7451565 213.745739,72.3108449 L213.745739,72.3108473 Z" id="Combined-Shape" fill="#DBD100"></path>
        </g>
    </g>
</svg>