<?xml version="1.0" encoding="UTF-8"?>
<svg width="287px" height="163px" viewBox="0 0 287 163" version="1.1" xmlns="http://www.w3.org/2000/svg" xmlns:xlink="http://www.w3.org/1999/xlink">
    <!-- Generator: Sketch 51.3 (57544) - http://www.bohemiancoding.com/sketch -->
    <title>accesory-6</title>
    <desc>Created with Sketch.</desc>
    <defs></defs>
    <g id="accesory-6" stroke="none" stroke-width="1" fill="none" fill-rule="evenodd">
        <g id="Rectangle-2">
            <rect fill="#FF7965" transform="translate(10.781089, 117.173394) rotate(30.000000) translate(-10.781089, -117.173394) " x="7.28108891" y="101.673394" width="7" height="31" rx="3.5"></rect>
            <rect fill="#FFFFFF" transform="translate(70.781089, 77.173394) rotate(20.000000) translate(-70.781089, -77.173394) " x="67.2810889" y="61.6733938" width="7" height="31" rx="3.5"></rect>
            <rect fill="#FFFFFF" transform="translate(270.781089, 77.173394) rotate(-70.000000) translate(-270.781089, -77.173394) " x="267.281089" y="61.6733938" width="7" height="31" rx="3.5"></rect>
            <rect fill="#FFFFFF" transform="translate(70.781089, 17.173394) rotate(-40.000000) translate(-70.781089, -17.173394) " x="67.2810889" y="1.67339376" width="7" height="31" rx="3.5"></rect>
            <rect fill="#FFFFFF" transform="translate(170.781089, 47.173394) rotate(80.000000) translate(-170.781089, -47.173394) " x="167.281089" y="31.6733938" width="7" height="31" rx="3.5"></rect>
            <rect fill="#FF7965" transform="translate(120.781089, 27.173394) rotate(40.000000) translate(-120.781089, -27.173394) " x="117.281089" y="11.6733938" width="7" height="31" rx="3.5"></rect>
            <rect fill="#DBD100" transform="translate(117.781089, 83.173394) rotate(140.000000) translate(-117.781089, -83.173394) " x="114.281089" y="67.6733938" width="7" height="31" rx="3.5"></rect>
            <rect fill="#DBD100" transform="translate(166.781089, 147.173394) rotate(210.000000) translate(-166.781089, -147.173394) " x="163.281089" y="131.673394" width="7" height="31" rx="3.5"></rect>
            <rect fill="#DBD100" transform="translate(214.826606, 70.173394) rotate(210.000000) translate(-214.826606, -70.173394) " x="211.326606" y="54.6733938" width="7" height="31" rx="3.5"></rect>
            <rect fill="#DBD100" transform="translate(177.781089, 13.173394) rotate(130.000000) translate(-177.781089, -13.173394) " x="174.281089" y="-2.32660624" width="7" height="31" rx="3.5"></rect>
            <rect fill="#DBD100" transform="translate(17.781089, 53.173394) rotate(250.000000) translate(-17.781089, -53.173394) " x="14.2810889" y="37.6733938" width="7" height="31" rx="3.5"></rect>
            <rect fill="#FF7965" transform="translate(91.138374, 131.872289) rotate(-10.000000) translate(-91.138374, -131.872289) " x="87.6383739" y="116.372289" width="7" height="31" rx="3.5"></rect>
            <rect fill="#FF7965" transform="translate(170.781089, 97.173394) rotate(-30.000000) translate(-170.781089, -97.173394) " x="167.281089" y="81.6733938" width="7" height="31" rx="3.5"></rect>
            <rect fill="#FF7965" transform="translate(240.781089, 117.173394) rotate(-120.000000) translate(-240.781089, -117.173394) " x="237.281089" y="101.673394" width="7" height="31" rx="3.5"></rect>
        </g>
    </g>
</svg>