<?xml version="1.0" encoding="UTF-8"?>
<svg width="120px" height="137px" viewBox="0 0 120 137" version="1.1" xmlns="http://www.w3.org/2000/svg" xmlns:xlink="http://www.w3.org/1999/xlink">
    <!-- Generator: Sketch 51.3 (57544) - http://www.bohemiancoding.com/sketch -->
    <title>accessory-1</title>
    <desc>Created with Sketch.</desc>
    <defs></defs>
    <g id="accessory-1" stroke="none" stroke-width="1" fill="none" fill-rule="evenodd">
        <g>
            <path d="M71.3110807,43.9977422 C75.9941961,39.4693109 78.6979302,33.261029 79.4222831,25.3728964 C80.146636,17.4847638 80.146636,12.0592653 79.4222831,9.09640072 C75.0318837,6.35098656 73.8791016,3.64860398 75.9639369,0.989252966 C78.0487721,-1.67009805 80.2915494,1.03228454 82.6922688,9.09640072 C83.2561774,16.6309747 83.3227271,22.095251 82.8919178,25.4892296 C81.8915041,33.3706362 79.1828372,40.3573491 74.7659171,46.4493681 C67.4959024,56.4765063 66.3442902,55.6592976 71.3110807,43.9977422 Z" id="Path-14" stroke="#7ED321" stroke-width="1.20000005" fill="#7ED321"></path>
            <path d="M59.9009901,123.780702 C85.7052647,123.780702 110.891708,102.796995 106.623762,76.9122807 C103.134892,55.7525897 94.4604562,58.7019857 84.7107635,50.112219 C76.4850721,42.8651425 78.0943773,33.8245593 59.9009901,30.0438596 C32.3863127,24.3261376 13.1782178,51.0275665 13.1782178,76.9122807 C13.1782178,102.796995 34.0967155,123.780702 59.9009901,123.780702 Z" id="Oval" fill="#EB1010" transform="translate(60.138697, 76.521874) rotate(-19.000000) translate(-60.138697, -76.521874) "></path>
            <path d="M69.8556735,82.8739784 L83.9124392,82.8739784 C86.2045421,88.640247 87.3505936,94.3301596 87.3505936,99.9437161 C87.3505936,105.557273 86.2045421,111.083734 83.9124392,116.523101 L69.8556735,116.523101 C72.793922,111.144892 74.2630463,105.710276 74.2630463,100.219252 C74.2630463,94.728229 72.793922,88.946471 69.8556735,82.8739784 Z" id="Rectangle-2" fill="#FF7965" transform="translate(78.603134, 99.698540) rotate(54.000000) translate(-78.603134, -99.698540) "></path>
        </g>
    </g>
</svg>