<?xml version="1.0" encoding="UTF-8"?>
<svg width="347px" height="130px" viewBox="0 0 347 130" version="1.1" xmlns="http://www.w3.org/2000/svg" xmlns:xlink="http://www.w3.org/1999/xlink">
    <!-- Generator: Sketch 51.3 (57544) - http://www.bohemiancoding.com/sketch -->
    <title>accessory-2</title>
    <desc>Created with Sketch.</desc>
    <defs></defs>
    <g id="accessory-2" stroke="none" stroke-width="1" fill="none" fill-rule="evenodd" stroke-linejoin="round">
        <g id="Group" stroke-width="1.10000002">
            <g transform="translate(68.125749, 64.450000) rotate(-20.000000) translate(-68.125749, -64.450000) translate(14.284431, 15.500000)">
                <path d="M53.5601785,0.341728341 L107.120357,97.1417283 C89.1901747,92.7417283 71.3110287,90.5417283 53.4829189,90.5417283 C35.6548091,90.5417283 17.8271695,92.7417283 0,97.1417283 L53.5601785,0.341728341 Z" id="Combined-Shape" stroke="#DBD100" fill="#DBD100"></path>
                <path d="M53.8218565,28.6 L81.2724555,78.364733 C72.0407221,76.2699192 62.9512797,75.2225123 54.0041284,75.2225123 C45.056977,75.2225123 35.8460201,76.0080675 26.3712575,77.5791778 L53.8218565,28.6 Z" id="Combined-Shape" stroke="#D66554" fill="#D66554"></path>
            </g>
            <g transform="translate(278.874251, 65.550000) rotate(20.000000) translate(-278.874251, -65.550000) translate(225.032934, 16.600000)">
                <path d="M53.5601785,0.341728341 L107.120357,97.1417283 C89.1901747,92.7417283 71.3110287,90.5417283 53.4829189,90.5417283 C35.6548091,90.5417283 17.8271695,92.7417283 0,97.1417283 L53.5601785,0.341728341 Z" id="Combined-Shape" stroke="#DBD100" fill="#DBD100"></path>
                <path d="M53.8218565,28.6 L81.2724555,78.364733 C72.0407221,76.2699192 62.9512797,75.2225123 54.0041284,75.2225123 C45.056977,75.2225123 35.8460201,76.0080675 26.3712575,77.5791778 L53.8218565,28.6 Z" id="Combined-Shape" stroke="#D66554" fill="#D66554"></path>
            </g>
        </g>
    </g>
</svg>