<?xml version="1.0" encoding="UTF-8"?>
<svg width="34px" height="147px" viewBox="0 0 34 147" version="1.1" xmlns="http://www.w3.org/2000/svg" xmlns:xlink="http://www.w3.org/1999/xlink">
    <!-- Generator: Sketch 51.3 (57544) - http://www.bohemiancoding.com/sketch -->
    <title>acessory-5</title>
    <desc>Created with Sketch.</desc>
    <defs></defs>
    <g id="acessory-5" stroke="none" stroke-width="1" fill="none" fill-rule="evenodd">
        <g id="Group-4">
            <g>
                <path d="M0,55.6363636 C5.76325758,57.1818182 11.4621212,57.9545455 17.0965909,57.9545455 C22.7310606,57.9545455 28.3655303,57.1818182 34,55.6363636 L34,143.727273 C28.5491536,145.272727 22.9544271,146.045455 17.2158203,146.045455 C11.4772135,146.045455 5.73860677,145.272727 0,143.727273 L0,55.6363636 Z" id="Rectangle-2" fill="#FF7965"></path>
                <ellipse id="Oval-2" fill="#D66554" cx="17" cy="55.25" rx="17" ry="2.70454545"></ellipse>
                <path d="M17.25,54.4953835 C17.25,47.0136127 17.25,43.2727273 17.25,43.2727273" id="Path-4" stroke="#000000" stroke-width="1.5"></path>
                <path d="M18.2858665,0 C5.40909091,12.6493845 2.18989702,25.2771366 8.6282848,37.8832564 C18.2858665,56.7924361 33.5819425,35.9710582 28.4912997,26.167081 C25.0975379,19.6310961 21.6957268,10.9087358 18.2858665,0 Z" id="Path-3" fill="#F5A623"></path>
                <path d="M17.9664132,11.5909091 C10.0454545,19.3719915 8.06521488,27.139767 12.0256942,34.8942358 C17.9664132,46.5259389 27.3755689,33.7179753 24.244135,27.6872032 C22.1565125,23.6666885 20.0639385,18.3012571 17.9664132,11.5909091 Z" id="Path-3" fill="#DBD100"></path>
                <g id="Group-3" transform="translate(0.000000, 55.636364)" fill="#D66554">
                    <path d="M34,12.4712915 C29.2100318,17.1626292 24.3317599,21.592024 19.3651842,25.7594758 C13.164694,30.9623049 6.70963256,35.8549908 0,40.4375336 L0,22.1035249 C3.5821339,19.6004928 7.03307556,16.9561765 10.352825,14.1705759 C14.8580646,10.3902311 19.1340247,6.33932421 23.1807053,2.01785533 C26.7871369,1.6618111 30.3935684,0.989192656 34,0 L34,12.4712915 Z" id="Combined-Shape"></path>
                    <path d="M34,50.7899279 C31.2113437,53.3506792 28.3936778,55.825377 25.5470024,58.2140213 C17.4639557,64.9965028 8.94828822,71.251924 0,76.9802848 L0,58.6556432 C5.83229712,54.9908923 11.3438448,50.9807184 16.5346432,46.6251214 C22.7998306,41.3680049 28.6216162,35.5876505 34,29.2840583 L34,50.7899279 Z" id="Combined-Shape"></path>
                    <path d="M9.60627054,89.9561829 C11.9759517,88.1985642 14.2854092,86.3760891 16.5346432,84.4887578 C22.7998306,79.2316413 28.6216162,73.4512869 34,67.1476946 L34,88.0909091 C28.5491536,89.6363636 22.9544271,90.4090909 17.2158203,90.4090909 C14.6793037,90.4090909 12.1427871,90.2581216 9.60627054,89.9561829 Z" id="Combined-Shape"></path>
                </g>
            </g>
        </g>
    </g>
</svg>