<?xml version="1.0" encoding="UTF-8"?>
<svg width="465px" height="135px" viewBox="0 0 465 135" version="1.1" xmlns="http://www.w3.org/2000/svg" xmlns:xlink="http://www.w3.org/1999/xlink">
    <!-- Generator: Sketch 51.3 (57544) - http://www.bohemiancoding.com/sketch -->
    <title>cake</title>
    <desc>Created with Sketch.</desc>
    <defs></defs>
    <g id="cake" stroke="none" stroke-width="1" fill="none" fill-rule="evenodd">
        <path d="M463.674443,118.987332 L463.737092,118.743719 L464.104848,118.743719 C463.961329,118.824978 463.817861,118.906183 463.674443,118.987332 Z M2.31381232,113.034921 C1.42086936,107.2695 0.209069223,99.1944211 0.209069223,98.160804 C0.209069223,58.3740996 34.2520311,0.391959799 232.647427,0.391959799 C431.042822,0.391959799 464.584333,58.3740996 464.584333,98.160804 C464.584333,99.3981859 462.848141,110.726957 462.001816,116.103738 C458.419356,117.765528 454.028981,118.743719 449.285714,118.743719 C441.660938,118.743719 434.948045,116.216034 431.037135,112.384352 C427.828862,117.616876 419.938925,121.316583 410.714286,121.316583 C402.273867,121.316583 394.950861,118.219188 391.309129,113.684294 C390.054705,120.855409 379.074342,126.462312 365.714286,126.462312 C358.26945,126.462312 351.563564,124.72124 346.867804,121.938634 C342.427183,126.179973 334.105211,129.035176 324.571429,129.035176 C316.241032,129.035176 308.835835,126.85527 304.136732,123.475495 C300.027077,128.281322 291.148077,131.60804 280.857143,131.60804 C270.203975,131.60804 261.063888,130.615868 257.161457,125.535456 C254.707614,131.943508 244.374597,134.180905 232,134.180905 C221.709066,134.180905 212.830065,130.854187 208.720411,126.048359 C204.021307,129.428134 196.616111,131.60804 188.285714,131.60804 C178.751931,131.60804 170.42996,128.752838 165.989339,124.511499 C161.293578,127.294104 154.587692,129.035176 147.142857,129.035176 C136.851923,129.035176 127.972923,125.708458 123.863268,120.902631 C119.164165,124.282405 111.758968,126.462312 103.428571,126.462312 C90.0685149,126.462312 79.088152,120.855409 77.8337282,113.684294 C74.1919966,118.219188 66.8689903,121.316583 58.4285714,121.316583 C49.2039324,121.316583 41.3139954,117.616876 38.1057226,112.384352 C34.1948117,116.216034 27.4819195,118.743719 19.8571429,118.743719 C12.6727053,118.743719 6.29786877,116.499557 2.31381232,113.034921 Z" fill="#DBD100"></path>
    </g>
</svg>