<?xml version="1.0" encoding="UTF-8"?>
<svg width="170px" height="101px" viewBox="0 0 170 101" version="1.1" xmlns="http://www.w3.org/2000/svg" xmlns:xlink="http://www.w3.org/1999/xlink">
    <!-- Generator: Sketch 51.3 (57544) - http://www.bohemiancoding.com/sketch -->
    <title>eyes-6</title>
    <desc>Created with Sketch.</desc>
    <defs></defs>
    <g id="eyes-6" stroke="none" stroke-width="1" fill="none" fill-rule="evenodd">
        <g id="Group">
            <g>
                <ellipse id="Oval-2" fill="#FFFFFF" cx="28.3333333" cy="50.4333333" rx="28.3333333" ry="50.4333333"></ellipse>
                <path d="M14.1666667,88.4 C23.2425461,88.4 32.8666667,70.0313868 32.8666667,51.5666667 C32.8666667,33.1019465 22.1092127,14.7333333 13.0333333,14.7333333 C3.95745394,14.7333333 0,33.1019465 0,51.5666667 C0,70.0313868 5.09078728,88.4 14.1666667,88.4 Z" id="Oval-2" fill="#000000"></path>
            </g>
            <g transform="translate(113.333333, 0.000000)">
                <ellipse id="Oval-2" fill="#FFFFFF" cx="28.3333333" cy="50.4333333" rx="28.3333333" ry="50.4333333"></ellipse>
                <path d="M14.1666667,88.4 C23.2425461,88.4 32.8666667,70.0313868 32.8666667,51.5666667 C32.8666667,33.1019465 22.1092127,14.7333333 13.0333333,14.7333333 C3.95745394,14.7333333 0,33.1019465 0,51.5666667 C0,70.0313868 5.09078728,88.4 14.1666667,88.4 Z" id="Oval-2" fill="#000000"></path>
            </g>
        </g>
    </g>
</svg>