<?xml version="1.0" encoding="UTF-8"?>
<svg width="333px" height="119px" viewBox="0 0 333 119" version="1.1" xmlns="http://www.w3.org/2000/svg" xmlns:xlink="http://www.w3.org/1999/xlink">
    <!-- Generator: Sketch 51.3 (57544) - http://www.bohemiancoding.com/sketch -->
    <title>eyes-3</title>
    <desc>Created with Sketch.</desc>
    <defs></defs>
    <g id="eyes-3" stroke="none" stroke-width="1" fill="none" fill-rule="evenodd">
        <g>
            <g id="Frame-3">
                <path d="M148,43 C148,34.4758497 155.066995,23 163.774384,23 L168.207882,23 C176.933005,23 184,34.4758497 184,43" id="Stroke-1" stroke="#000000" stroke-width="7" stroke-linejoin="round"></path>
                <path d="M150.152006,33 C150.124369,33.675 150.041456,34.325 150,35 C150.069094,34.325 150.11055,33.6625 150.152006,33" id="Fill-18" fill="#FEFEFE"></path>
                <path d="M150.11055,33.7 C150.069094,34.1375 150.027638,34.5625 150,35 C150.041456,34.5625 150.082913,34.125 150.11055,33.7 M150.152006,33 C150.138188,33.2375 150.124369,33.4625 150.11055,33.7 C150.124369,33.4625 150.138188,33.2375 150.152006,33" id="Fill-20" fill="#231F20"></path>
                <path d="M149.964144,32.3793641 C149.901397,29.4696091 149.587659,26.7190504 148.86158,24.2515074 C148.422347,22.7922078 147.911403,21.3859736 147.266,20.0681818 C146.7192,18.8299882 146.028977,17.6979254 145.28497,16.6012396 C145.141547,16.3978221 145.025016,16.1767161 144.881593,15.9821428 C144.397541,15.3099806 143.868668,14.664351 143.303941,14.0540985 C142.228268,12.8778145 141.242235,11.568867 139.888681,10.5783121 C138.947468,9.77348624 137.907652,9.03941431 136.876799,8.34956357 C129.607048,3.49407573 120.410051,1.22995024 112.145302,1.22995024 L104.095689,1 L97.6237277,1.01768848 L94.1098652,1 C86.3739892,1.0884424 78.6381133,1.05306544 70.9201653,1.32723689 C62.0817253,1.63678529 53.3598166,2.78653651 44.879934,5.38674312 C28.0187723,10.5517794 17.4682207,21.4125063 14.2860238,38.7295285 C11.5968433,53.331369 13.2103516,67.6059727 18.3287585,81.500274 C22.4163129,92.5732626 28.6821034,102.26655 38.6410353,109.005861 C55.9862495,120.742168 74.7029458,121.679657 93.8947307,114.232807 C108.685223,108.501739 120.2487,98.3839284 129.642904,85.9489268 C140.847822,71.1348245 148.942256,55.0736843 149.937252,36.2885182 L150,34.0774582 L149.964144,32.3793641 Z" id="Stroke-22" stroke="#000000" stroke-width="10" stroke-linejoin="round"></path>
                <path d="M182,34 C182.027638,34.675 182.11055,35.325 182.152006,36 C182.082913,35.3125 182.041456,34.6625 182,34" id="Fill-24" fill="#FEFEFE"></path>
                <path d="M182.041456,34.7 C182.069094,35.125 182.096731,35.5625 182.138188,36 C182.124369,35.5625 182.082913,35.1375 182.041456,34.7 M182,34 C182.013819,34.2375 182.027638,34.4625 182.041456,34.7 C182.027638,34.4625 182.013819,34.2375 182,34" id="Fill-26" fill="#231F20"></path>
                <path d="M182.035856,32.3868542 C182.098604,29.4772247 182.412342,26.7267847 183.138422,24.2593481 C183.568692,22.7912676 184.088601,21.3939379 184.725042,20.076203 C185.271843,18.8380628 185.971032,17.7060489 186.71504,16.6094104 C186.849499,16.4060017 186.974995,16.1849052 187.118418,15.9903403 C187.602472,15.3182071 188.131345,14.6726054 188.68711,14.0623792 C189.771749,12.886146 190.757784,11.5772549 192.111341,10.5867427 C193.052556,9.77310773 194.092375,9.04791133 195.12323,8.35809036 C202.392997,3.50281198 211.58105,1.23878418 219.85478,1.23878418 L227.904412,1 L234.376387,1.02653158 L237.881293,1.00884386 C245.62615,1.09728244 253.353079,1.06190701 261.080008,1.32722277 C269.909503,1.63675782 278.631431,2.78645944 287.120296,5.39539773 C303.97253,10.5602111 314.523105,21.4204695 317.714273,38.7367447 C320.403459,53.3379552 318.789947,67.611943 313.662565,81.5056449 C309.583966,92.5781558 303.318162,102.271025 293.359208,109.010045 C276.004992,120.745845 257.297219,121.674451 238.105392,114.236766 C223.314867,108.505945 211.751365,98.3885709 202.357141,85.9541057 C191.152198,71.1317987 183.057747,55.0801954 182.062748,36.2958397 L182,34.084875 L182.035856,32.3868542 Z" id="Stroke-28" stroke="#000000" stroke-width="10" stroke-linejoin="round"></path>
                <path d="M119,0 L227,0" id="Stroke-30" stroke="#000000" stroke-width="7" stroke-linejoin="round"></path>
                <path d="M0,38 L15,38" id="Stroke-56" stroke="#000000" stroke-width="10" stroke-linejoin="round"></path>
                <path d="M318,38 L333,38" id="Stroke-58" stroke="#000000" stroke-width="10" stroke-linejoin="round"></path>
            </g>
            <g id="Group" transform="translate(62.000000, 44.000000)" fill="#000000">
                <circle id="Oval" cx="15" cy="15" r="15"></circle>
                <circle id="Oval-Copy" cx="192" cy="15" r="15"></circle>
            </g>
        </g>
    </g>
</svg>