<?xml version="1.0" encoding="UTF-8"?>
<svg width="450px" height="273px" viewBox="0 0 450 273" version="1.1" xmlns="http://www.w3.org/2000/svg" xmlns:xlink="http://www.w3.org/1999/xlink">
    <!-- Generator: Sketch 51.3 (57544) - http://www.bohemiancoding.com/sketch -->
    <title>frosting</title>
    <desc>Created with Sketch.</desc>
    <defs></defs>
    <g id="frosting" stroke="none" stroke-width="1" fill="none" fill-rule="evenodd">
        <g>
            <path d="" id="Path-2" stroke="#979797" stroke-width="3.08879994"></path>
            <path d="M89.6926689,234.115315 C59.9357815,248.019152 34.1899536,244.0078 12.4551851,222.081259 C-17.9034194,191.45479 24.9402325,117.904189 32.5893411,118.430794 C32.1268849,127.936648 33.2845198,138.419097 36.0622458,149.878141 C45.4128714,188.452582 65.0309907,217.516683 89.6926689,234.115315 Z" id="Combined-Shape" fill="#00A7B2"></path>
            <path d="M172.972407,243.791444 C114.122218,265.863875 54.698888,226.760489 36.0622458,149.878141 C23.4661472,97.9150441 44.184505,66.0339826 98.2173192,54.2349562 C90.8638611,66.8323841 86.4982827,84.6216913 88.0862719,109.492577 C91.8433752,168.33585 129.274159,215.930692 172.972407,243.791444 Z" id="Combined-Shape" fill="#02949D"></path>
            <path d="M354.706746,121.537659 C278.497394,105.034154 235.283427,67.1557125 225.064846,7.90233312 C226.580364,5.1815155 228.3587,3.14564186 230.399856,1.7947122 C247.58468,40.3563081 272.800059,59.637106 306.045992,59.637106 C351.209145,59.637106 373.867612,100.7435 354.706756,121.537661 Z" id="Combined-Shape" fill="#02949D"></path>
            <path d="M312.601323,246.373361 C310.210329,253.71731 300.451163,260.988643 279.106914,267.515018 C214.660812,287.220534 94.9633152,217.199954 88.0862719,109.492577 C82.3212294,19.2012128 155.023219,22.2438721 164.289718,28.2019663 C154.441709,36.8808118 146.97386,48.2015665 141.88617,62.1642302 C122.854238,114.3955 199.030126,174.301964 239.875187,201.137905 C260.05076,214.39362 286.271174,233.36852 312.601323,246.373361 Z" id="Combined-Shape" fill="#00A7B2"></path>
            <path d="M224.35888,6.99423253 C189.684222,65.8959 206.264046,105.75788 274.098352,126.580174 C375.84981,157.813614 428.638364,231.70249 387.489298,254.976245 C346.340232,278.25 280.720248,227.973847 239.875187,201.137905 C199.030126,174.301964 122.854238,114.3955 141.88617,62.1642302 C154.574125,27.3433836 182.065028,8.95338435 224.35888,6.99423253 Z" id="Path-7" fill="#02949D"></path>
            <path d="M398.872447,243.54052 C414.088481,213.215279 362.624369,153.753956 274.098352,126.580174 C206.264046,105.75788 189.684222,65.8959 224.35888,6.99423253 C224.339525,6.99512909 224.320173,6.99602909 224.300825,6.99693253 L224.831443,6.50999315 C235.512762,72.1042523 286.177293,111.796749 376.825035,125.587483 C490.129121,142.82505 446.379331,233.412179 398.872448,243.540518 Z" id="Combined-Shape" fill="#00A7B2"></path>
        </g>
    </g>
</svg>