<?xml version="1.0" encoding="UTF-8"?>
<svg width="450px" height="273px" viewBox="0 0 450 273" version="1.1" xmlns="http://www.w3.org/2000/svg" xmlns:xlink="http://www.w3.org/1999/xlink">
    <!-- Generator: Sketch 51.3 (57544) - http://www.bohemiancoding.com/sketch -->
    <title>frosting</title>
    <desc>Created with Sketch.</desc>
    <defs></defs>
    <g id="frosting" stroke="none" stroke-width="1" fill="none" fill-rule="evenodd">
        <g transform="translate(2.000000, 2.000000)">
            <path d="" id="Path-2" stroke="#979797" stroke-width="3.08879994"></path>
            <path d="M396.998629,241.285236 C394.739596,245.925322 390.937957,249.894504 385.489298,252.976245 C364.885991,264.629397 338.147832,257.843605 311.456412,244.793573 C308.833766,251.994466 299.043984,259.113145 278.106914,265.515018 C248.869353,274.454911 208.259913,264.927319 171.972407,241.791444 C142.649323,252.789399 113.183945,248.599258 88.6926689,232.115315 C58.9357815,246.019152 33.1899536,242.0078 11.4551851,220.081259 C-18.9034194,189.45479 23.9402325,115.904189 31.5893411,116.430794 C33.223976,82.8306415 55.0999687,61.4320291 97.2173192,52.2349562 C116.042815,19.9844431 154.451019,21.7617335 162.680906,25.8596978 C177.154215,13.2873778 196.703511,6.34926371 221.328797,5.04535224 C221.33882,5.02831393 221.348848,5.01127403 221.35888,4.99423253 C221.339525,4.99512909 221.320173,4.99602909 221.300825,4.99693253 L221.831443,4.50999315 C221.840832,4.56765174 221.850252,4.62529032 221.859703,4.68290889 C223.188067,2.66428696 224.693711,1.10331733 226.376635,0 C243.69554,38.4954857 269.107655,57.7432286 302.612982,57.7432286 C348.121485,57.7432286 370.956715,98.7664838 351.662348,119.528048 C358.76335,121.06683 366.15091,122.419977 373.825035,123.587483 C486.233185,140.688746 444.061402,229.984155 396.998629,241.285236 Z" id="Combined-Shape" fill="#00A7B2"></path>
        </g>
    </g>
</svg>