<?xml version="1.0" encoding="UTF-8"?>
<svg width="450px" height="273px" viewBox="0 0 450 273" version="1.1" xmlns="http://www.w3.org/2000/svg" xmlns:xlink="http://www.w3.org/1999/xlink">
    <!-- Generator: Sketch 51.3 (57544) - http://www.bohemiancoding.com/sketch -->
    <title>frosting-top</title>
    <desc>Created with Sketch.</desc>
    <defs></defs>
    <g id="frosting-top" stroke="none" stroke-width="1" fill="none" fill-rule="evenodd">
        <g id="frosting" transform="translate(1.000000, 1.000000)">
            <path d="" id="Path-2" stroke="#979797" stroke-width="3.08879994"></path>
            <path d="M88.6926689,233.115315 C58.9357815,247.019152 33.1899536,243.0078 11.4551851,221.081259 C-18.9034194,190.45479 23.9402325,116.904189 31.5893411,117.430794 C31.1268849,126.936648 32.2845198,137.419097 35.0622458,148.878141 C44.4128714,187.452582 64.0309907,216.516683 88.6926689,233.115315 Z" id="Combined-Shape" fill="#00A7B2"></path>
            <path d="M171.972407,242.791444 C113.122218,264.863875 53.698888,225.760489 35.0622458,148.878141 C22.4661472,96.9150441 43.184505,65.0339826 97.2173192,53.2349562 C89.8638611,65.8323841 85.4982827,83.6216913 87.0862719,108.492577 C90.8433752,167.33585 128.274159,214.930692 171.972407,242.791444 Z" id="Combined-Shape" fill="#02949D"></path>
            <path d="M353.706746,120.537659 C277.497394,104.034154 234.283427,66.1557125 224.064846,6.90233312 C225.580364,4.1815155 227.3587,2.14564186 229.399856,0.794712197 C246.58468,39.3563081 271.800059,58.637106 305.045992,58.637106 C350.209145,58.637106 372.867612,99.7435002 353.706756,120.537661 Z" id="Combined-Shape" fill="#02949D"></path>
            <path d="M311.601323,245.373361 C309.210329,252.71731 299.451163,259.988643 278.106914,266.515018 C213.660812,286.220534 93.9633152,216.199954 87.0862719,108.492577 C81.3212294,18.2012128 154.023219,21.2438721 163.289718,27.2019663 C153.441709,35.8808118 145.97386,47.2015665 140.88617,61.1642302 C121.854238,113.3955 198.030126,173.301964 238.875187,200.137905 C259.05076,213.39362 285.271174,232.36852 311.601323,245.373361 Z" id="Combined-Shape" fill="#00A7B2"></path>
            <path d="M223.35888,5.99423253 C188.684222,64.8959 205.264046,104.75788 273.098352,125.580174 C374.84981,156.813614 427.638364,230.70249 386.489298,253.976245 C345.340232,277.25 279.720248,226.973847 238.875187,200.137905 C198.030126,173.301964 121.854238,113.3955 140.88617,61.1642302 C153.574125,26.3433836 181.065028,7.95338435 223.35888,5.99423253 Z" id="Path-7" fill="#02949D"></path>
            <path d="M397.872447,242.54052 C413.088481,212.215279 361.624369,152.753956 273.098352,125.580174 C205.264046,104.75788 188.684222,64.8959 223.35888,5.99423253 C223.339525,5.99512909 223.320173,5.99602909 223.300825,5.99693253 L223.831443,5.50999315 C234.512762,71.1042523 285.177293,110.796749 375.825035,124.587483 C489.129121,141.82505 445.379331,232.412179 397.872448,242.540518 Z" id="Combined-Shape" fill="#00A7B2"></path>
        </g>
    </g>
</svg>