<?xml version="1.0" encoding="UTF-8"?>
<svg width="450px" height="273px" viewBox="0 0 450 273" version="1.1" xmlns="http://www.w3.org/2000/svg" xmlns:xlink="http://www.w3.org/1999/xlink">
    <!-- Generator: Sketch 51.3 (57544) - http://www.bohemiancoding.com/sketch -->
    <title>frosting-top</title>
    <desc>Created with Sketch.</desc>
    <defs></defs>
    <g id="frosting-top" stroke="none" stroke-width="1" fill="none" fill-rule="evenodd">
        <g id="frosting" transform="translate(33.000000, 2.000000)">
            <path d="" id="Path-2" stroke="#979797" stroke-width="3.08879994"></path>
            <path d="M140.972407,241.791444 C82.1222184,263.863875 22.698888,224.760489 4.06224583,147.878141 C-8.53385279,95.9150441 12.184505,64.0339826 66.2173192,52.2349562 C58.8638611,64.8323841 54.4982827,82.6216913 56.0862719,107.492577 C59.8433752,166.33585 97.2741593,213.930692 140.972407,241.791444 Z" id="Combined-Shape" fill="#000000"></path>
            <path d="M320.6534,119.537659 C243.849443,103.062448 200.298309,65.2489452 190,6.09714999 C191.527342,3.38099696 193.319554,1.34861363 195.376635,0 C212.69554,38.4954857 238.107655,57.7432286 271.612982,57.7432286 C317.12851,57.7432286 339.963764,98.7791498 320.65341,119.537661 Z" id="Combined-Shape" fill="#000000"></path>
            <path d="M191.35888,4.99423253 C156.684222,63.8959 173.264046,103.75788 241.098352,124.580174 C342.84981,155.813614 395.638364,229.70249 354.489298,252.976245 C313.340232,276.25 247.720248,225.973847 206.875187,199.137905 C166.030126,172.301964 89.854238,112.3955 108.88617,60.1642302 C121.574125,25.3433836 149.065028,6.95338435 191.35888,4.99423253 Z" id="Path-7" fill="#000000"></path>
        </g>
    </g>
</svg>