<?xml version="1.0" encoding="UTF-8"?>
<svg width="188px" height="55px" viewBox="0 0 188 55" version="1.1" xmlns="http://www.w3.org/2000/svg" xmlns:xlink="http://www.w3.org/1999/xlink">
    <!-- Generator: Sketch 51.3 (57544) - http://www.bohemiancoding.com/sketch -->
    <title>mouth-1</title>
    <desc>Created with Sketch.</desc>
    <defs>
        <path d="M52.0695949,0.537832616 C52.0804372,0.595662084 52.0911883,0.653538863 52.1018596,0.711459803 C56.0338147,22.053063 47.6388893,41.3084366 33.351269,43.7195406 C19.0636487,46.1306445 4.29376457,30.7844428 0.361809498,9.44283962 C0.322886528,9.23157612 0.285171506,9.02051706 0.24865819,8.80967676 C17.5257059,7.646689 34.7999693,4.88907648 52.0695949,0.537832616 Z" id="path-1"></path>
    </defs>
    <g id="mouth-1" stroke="none" stroke-width="1" fill="none" fill-rule="evenodd">
        <g id="mouth" transform="translate(-1.000000, -0.994975)">
            <g id="Group" transform="translate(109.000000, 8.718593)">
                <mask id="mask-2" fill="white">
                    <use xlink:href="#path-1"></use>
                </mask>
                <use id="Combined-Shape" fill="#FF7965" xlink:href="#path-1"></use>
                <g id="↳Color" mask="url(#mask-2)" fill="#FF6F81">
                    <g transform="translate(-156.857143, -32.216736)" id="Color">
                        <rect x="0" y="0" width="282.857143" height="135.355036"></rect>
                    </g>
                </g>
                <path d="M25.2027865,3.9083975 C25.9141508,3.79907522 26.625508,3.68667777 27.336858,3.57120523 C29.6382493,17.4448913 30.9890372,27.57904 30.4890659,27.6671984 C29.9886384,27.7554373 27.7883263,17.7521434 25.2027865,3.9083975 Z" id="Combined-Shape-Copy" fill="#D66554" mask="url(#mask-2)"></path>
            </g>
            <path d="M2.73745174,5.78897425 C1.3940564,5.34816134 0.678403452,3.94854259 1.13899614,2.66283828 C1.59958883,1.37713397 3.06201007,0.692214155 4.40540541,1.13302706 C34.1406828,10.8901654 63.8593172,15.7660039 93.5714286,15.7660039 C123.28354,15.7660039 153.002174,10.8901654 182.737452,1.13302706 C184.080847,0.692214155 185.543268,1.37713397 186.003861,2.66283828 C186.464454,3.94854259 185.748801,5.34816134 184.405405,5.78897425 C154.140683,15.7198412 123.859317,20.6880052 93.5714286,20.6880052 C63.28354,20.6880052 33.0021743,15.7198412 2.73745174,5.78897425 Z" id="Path-2-Copy" fill="#000000" fill-rule="nonzero"></path>
        </g>
    </g>
</svg>