<?xml version="1.0" encoding="UTF-8"?>
<svg width="233px" height="59px" viewBox="0 0 233 59" version="1.1" xmlns="http://www.w3.org/2000/svg" xmlns:xlink="http://www.w3.org/1999/xlink">
    <!-- Generator: Sketch 51.3 (57544) - http://www.bohemiancoding.com/sketch -->
    <title>mouth-6</title>
    <desc>Created with Sketch.</desc>
    <defs></defs>
    <g id="mouth-6" stroke="none" stroke-width="1" fill="none" fill-rule="evenodd">
        <g>
            <g id="Group" fill="#FF7965">
                <circle id="Oval" cx="29" cy="30" r="29"></circle>
                <circle id="Oval-Copy" cx="204" cy="29" r="29"></circle>
            </g>
            <path d="M83.1989557,54.7570762 C80.1326371,54.7570762 78.0884248,54.1438124 76.0442124,52.917285 C74,51.6907576 74,49.8509664 74,48.624439 C76.0442124,43.1050655 82.1768495,38.1989558 89.3315928,34.5193735 C96.4863362,30.8397912 105.685292,29 115.906354,29 C126.127416,29 135.326371,30.8397912 142.481115,34.5193735 C149.635858,38.1989558 155.768495,43.1050655 157.812708,48.624439 C158.834814,50.4642301 157.596998,51.6982834 155.768495,52.917285 C153.939993,54.1362866 151.68007,54.7570762 148.613752,54.7570762 C148.613752,54.7570762 128.171628,52.3040213 114.884248,52.3040213 C101.596867,52.3040213 83.1989557,54.7570762 83.1989557,54.7570762 Z" id="XMLID_465_" fill="#D66554" fill-rule="nonzero"></path>
        </g>
    </g>
</svg>