<?xml version="1.0" encoding="UTF-8"?>
<svg width="143px" height="88px" viewBox="0 0 143 88" version="1.1" xmlns="http://www.w3.org/2000/svg" xmlns:xlink="http://www.w3.org/1999/xlink">
    <!-- Generator: Sketch 51.3 (57544) - http://www.bohemiancoding.com/sketch -->
    <title>mouth-2</title>
    <desc>Created with Sketch.</desc>
    <defs></defs>
    <g id="mouth-2" stroke="none" stroke-width="1" fill="none" fill-rule="evenodd">
        <g fill-rule="nonzero">
            <path d="M72,87.8363636 C72,87.8363636 58.2545455,88.8181818 34.3636364,72.1272727 C19.6363636,61.9818182 9.16363636,56.0909091 4.25454545,53.4727273 C2.29090909,52.4909091 0.981818182,50.5272727 0.981818182,48.2363636 C0.981818182,46.2727273 1.96363636,44.3090909 3.6,43.3272727 C10.1454545,39.0727273 28.1454545,35.9818182 39.6,17.6545455 C58.5818182,-12.7818182 71.6727273,5.87272727 71.6727273,5.87272727 C71.6727273,5.87272727 84.7636364,-12.7818182 103.745455,17.6545455 C115.2,35.9818182 133.2,39.0727273 139.745455,43.3272727 C141.381818,44.3090909 142.363636,46.2727273 142.363636,48.2363636 C142.363636,50.5272727 141.054545,52.4909091 139.090909,53.4727273 C134.181818,56.0909091 123.709091,61.9818182 108.981818,72.1272727 C85.7454545,88.8181818 72,87.8363636 72,87.8363636 Z" id="XMLID_421_" fill="#D0021B"></path>
            <path d="M4.30909091,49.5636364 C-1.48788569,49.5636364 2.61818182,51.8545455 4.25454545,52.1818182 C9.16363636,53.4909091 24.3304949,56.280378 34.3636364,62.6545455 C46.4482422,70.3320312 47.9052734,81.4909091 72,81.4909091 C96.0947266,81.4909091 98.8769531,70.3320312 109.636364,62.6545455 C118.674978,56.2049508 134.836364,53.4909091 139.745455,52.1818182 C141.709091,51.5272727 142.690909,50.5454545 142.690909,49.5636364 C127.478835,49.5636364 112.266761,44.5636364 97.0546875,44.5636364 C88.6591797,44.5636364 80.2636719,49.5636364 71.8681641,49.5636364 C63.4576823,49.5636364 55.0472005,44.5636364 46.6367188,44.5636364 C31.5275095,44.5636364 19.4183002,49.5636364 4.30909091,49.5636364 Z" id="XMLID_515_" fill="#E43737"></path>
        </g>
    </g>
</svg>