<?xml version="1.0" encoding="UTF-8"?>
<svg width="181px" height="31px" viewBox="0 0 181 31" version="1.1" xmlns="http://www.w3.org/2000/svg" xmlns:xlink="http://www.w3.org/1999/xlink">
    <!-- Generator: Sketch 51.3 (57544) - http://www.bohemiancoding.com/sketch -->
    <title>mouth-4</title>
    <desc>Created with Sketch.</desc>
    <defs></defs>
    <g id="mouth-4" stroke="none" stroke-width="1" fill="none" fill-rule="evenodd">
        <g>
            <path d="M1.69449949,4.87887565 C0.384842395,4.42985036 -0.312837534,3.00415659 0.136187757,1.69449949 C0.585213048,0.384842395 2.01090682,-0.312837534 3.32056391,0.136187757 C32.309065,10.0751024 61.2813409,15.0417783 90.2472577,15.0417783 C119.213175,15.0417783 148.18545,10.0751024 177.173952,0.136187757 C178.483609,-0.312837534 179.909302,0.384842395 180.358328,1.69449949 C180.807353,3.00415659 180.109673,4.42985036 178.800016,4.87887565 C149.295366,14.9947555 119.774492,20.0554769 90.2472577,20.0554769 C60.7200239,20.0554769 31.1991491,14.9947555 1.69449949,4.87887565 Z" id="Path-2-Copy" fill="#000000" fill-rule="nonzero"></path>
            <path d="M56.306235,18.6337939 C62.0109195,19.3739947 67.7159793,19.9278566 73.4213442,20.2953403 C71.9591854,26.2296299 68.0943443,30.3928314 63.9518252,30.0304079 C59.7719982,29.6647204 56.6706638,24.8106135 56.306235,18.6337939 Z M13.5537527,9.59623536 C19.1203717,11.2275679 24.6875156,12.6814216 30.2551189,13.95776 C28.2169444,19.4727177 24.124223,23.0548827 20.1428576,22.3528605 C15.8477585,21.5955187 13.1361842,16.1085611 13.5537527,9.59623536 Z M106.827737,20.3170015 C112.597944,19.9528245 118.36784,19.398009 124.137353,18.6525955 C123.982582,25.171647 120.804187,30.3959924 116.461755,30.7759059 C112.152762,31.1528939 108.144214,26.6332102 106.827737,20.3170015 Z M149.929737,14.0500501 C155.555415,12.7690793 161.180625,11.3068712 166.805301,9.66346331 C167.462807,16.4694087 164.714162,22.3148602 160.270722,23.0983585 C156.134253,23.8277297 151.877582,19.9326093 149.929737,14.0500501 Z" id="Combined-Shape" fill="#FFFFFF"></path>
        </g>
    </g>
</svg>