<?xml version="1.0" encoding="UTF-8"?>
<svg width="321px" height="85px" viewBox="0 0 321 85" version="1.1" xmlns="http://www.w3.org/2000/svg" xmlns:xlink="http://www.w3.org/1999/xlink">
    <!-- Generator: Sketch 51.3 (57544) - http://www.bohemiancoding.com/sketch -->
    <title>mouth-3</title>
    <desc>Created with Sketch.</desc>
    <defs></defs>
    <g id="mouth-3" stroke="none" stroke-width="1" fill="none" fill-rule="evenodd">
        <path d="M160.422801,36.2900049 C153.733301,64.5118356 131.259158,80.2887626 93.0003711,83.620786 C54.0855812,87.0099419 26.152246,80.3287392 9.20036556,63.5771779 C0.478714616,54.9607496 -2.04205268,42.5831619 1.63806368,26.4444149 C4.46388551,14.0520829 13.5962014,9.52354832 29.0350113,12.8588112 C14.7350716,16.3608373 9.45051028,23.6836713 13.1813272,34.8273134 C16.9121442,45.9709555 25.9834491,50.0365852 40.3952421,47.0242025 C59.853654,41.3923566 77.388697,30.0038928 93.0003711,12.8588112 C108.553861,-4.22237094 131.028004,-4.28603225 160.422801,12.6678273 C189.817598,-4.28603225 212.291741,-4.22237094 227.845231,12.8588112 C243.456905,30.0038928 260.991948,41.3923566 280.45036,47.0242025 C294.862153,50.0365852 303.933458,45.9709555 307.664275,34.8273134 C311.395092,23.6836713 306.11053,16.3608373 291.810591,12.8588112 C307.249401,9.52354832 316.381716,14.0520829 319.207538,26.4444149 C322.887655,42.5831619 320.366887,54.9607496 311.645236,63.5771779 C294.693356,80.3287392 266.760021,87.0099419 227.845231,83.620786 C189.586444,80.2887626 167.112301,64.5118356 160.422801,36.2900049 Z" fill="#4A4A4A"></path>
    </g>
</svg>