<?xml version="1.0" encoding="UTF-8"?>
<svg width="468px" height="211px" viewBox="0 0 468 211" version="1.1" xmlns="http://www.w3.org/2000/svg" xmlns:xlink="http://www.w3.org/1999/xlink">
    <!-- Generator: Sketch 51.3 (57544) - http://www.bohemiancoding.com/sketch -->
    <title>wrapper</title>
    <desc>Created with Sketch.</desc>
    <defs>
        <path d="M412.714286,10.2914573 C421.938925,10.2914573 429.828862,6.59175023 433.037135,1.35922686 C436.948045,5.19090869 443.660938,7.71859296 451.285714,7.71859296 C457.3593,7.71859296 462.85429,6.11476069 466.815386,3.5255744 L421.915797,178.120603 C419.785683,194.898395 337.635091,208.40201 236.571429,208.40201 C134.319852,208.40201 54.439352,194.512886 51.4285714,177.527638 C51.3045707,176.828091 29.2743331,102.22991 2.44012181,0.0715088423 C6.07779654,4.61445975 13.407548,7.71859296 21.8571429,7.71859296 C29.4819195,7.71859296 36.1948117,5.19090869 40.1057226,1.35922686 C43.3139954,6.59175023 51.2039324,10.2914573 60.4285714,10.2914573 C68.8689903,10.2914573 76.1919966,7.19406242 79.8337282,2.65916865 C81.088152,9.83028319 92.0685149,15.4371859 105.428571,15.4371859 C113.758968,15.4371859 121.164165,13.2572797 125.863268,9.87750492 C129.972923,14.6833323 138.851923,18.0100503 149.142857,18.0100503 C156.587692,18.0100503 163.293578,16.2689787 167.989339,13.486373 C172.42996,17.7277119 180.751931,20.5829146 190.285714,20.5829146 C198.616111,20.5829146 206.021307,18.4030084 210.720411,15.0232336 C214.830065,19.8290609 223.709066,23.1557789 234,23.1557789 C246.374597,23.1557789 256.707614,20.9183828 259.161457,14.5103305 C263.063888,19.5907426 272.203975,20.5829146 282.857143,20.5829146 C293.148077,20.5829146 302.027077,17.2561966 306.136732,12.4503692 C310.835835,15.8301441 318.241032,18.0100503 326.571429,18.0100503 C336.105211,18.0100503 344.427183,15.1548476 348.867804,10.9135087 C353.563564,13.6961144 360.26945,15.4371859 367.714286,15.4371859 C381.074342,15.4371859 392.054705,9.83028319 393.309129,2.65916865 C396.950861,7.19406242 404.273867,10.2914573 412.714286,10.2914573 Z" id="path-1"></path>
    </defs>
    <g id="wrapper" stroke="none" stroke-width="1" fill="none" fill-rule="evenodd">
        <g transform="translate(0.000000, 0.025126)">
            <mask id="mask-2" fill="white">
                <use xlink:href="#path-1"></use>
            </mask>
            <use id="Mask" fill="#FF7965" xlink:href="#path-1"></use>
            <path d="M40.2287946,2.7160804 L82.250558,213.28392" id="Path-12" stroke="#D66554" stroke-width="1.93049989" mask="url(#mask-2)"></path>
            <path d="M78.0845424,-2.65577889 L113.107701,213.28392" id="Path-12" stroke="#D66554" stroke-width="1.93049989" mask="url(#mask-2)"></path>
            <path d="M125.085937,2.7160804 L149.107701,213.28392" id="Path-12" stroke="#D66554" stroke-width="1.93049989" mask="url(#mask-2)"></path>
            <path d="M166.228795,2.7160804 L182.536272,213.28392" id="Path-12" stroke="#D66554" stroke-width="1.93049989" mask="url(#mask-2)"></path>
            <polyline id="Path-12" stroke="#D66554" stroke-width="1.93049989" mask="url(#mask-2)" transform="translate(422.527902, 99.849246) scale(-1, 1) translate(-422.527902, -99.849246) " points="390.892299 -13.5854271 410.009766 -4.1080402 454.163504 213.28392"></polyline>
            <path d="M360.035156,-5.68844221 L395.083426,213.28392" id="Path-12" stroke="#D66554" stroke-width="1.93049989" mask="url(#mask-2)" transform="translate(377.559291, 103.797739) scale(-1, 1) translate(-377.559291, -103.797739) "></path>
            <path d="M324.035156,2.7160804 L348.05692,213.28392" id="Path-12" stroke="#D66554" stroke-width="1.93049989" mask="url(#mask-2)" transform="translate(336.046038, 108.000000) scale(-1, 1) translate(-336.046038, -108.000000) "></path>
            <path d="M290.606585,2.7160804 L306.914062,213.28392" id="Path-12" stroke="#D66554" stroke-width="1.93049989" mask="url(#mask-2)" transform="translate(298.760324, 108.000000) scale(-1, 1) translate(-298.760324, -108.000000) "></path>
            <path d="M209.94308,5.28894472 L218.536272,215.856784" id="Path-12" stroke="#D66554" stroke-width="1.93049989" mask="url(#mask-2)"></path>
            <path d="M251.085937,5.28894472 L259.679129,215.856784" id="Path-12" stroke="#D66554" stroke-width="1.93049989" mask="url(#mask-2)" transform="translate(255.382533, 110.572864) scale(-1, 1) translate(-255.382533, -110.572864) "></path>
        </g>
    </g>
</svg>