<?xml version="1.0" encoding="UTF-8"?>
<svg width="465px" height="209px" viewBox="0 0 465 209" version="1.1" xmlns="http://www.w3.org/2000/svg" xmlns:xlink="http://www.w3.org/1999/xlink">
    <!-- Generator: Sketch 51.3 (57544) - http://www.bohemiancoding.com/sketch -->
    <title>wrapper</title>
    <desc>Created with Sketch.</desc>
    <defs>
        <path d="M410.714286,10.2914573 C419.938925,10.2914573 427.828862,6.59175023 431.037135,1.35922686 C434.948045,5.19090869 441.660938,7.71859296 449.285714,7.71859296 C455.3593,7.71859296 460.85429,6.11476069 464.815386,3.5255744 L419.915797,178.120603 C417.785683,194.898395 335.635091,208.40201 234.571429,208.40201 C132.319852,208.40201 52.439352,194.512886 49.4285714,177.527638 C49.3045707,176.828091 27.2743331,102.22991 0.440121807,0.0715088423 C4.07779654,4.61445975 11.407548,7.71859296 19.8571429,7.71859296 C27.4819195,7.71859296 34.1948117,5.19090869 38.1057226,1.35922686 C41.3139954,6.59175023 49.2039324,10.2914573 58.4285714,10.2914573 C66.8689903,10.2914573 74.1919966,7.19406242 77.8337282,2.65916865 C79.088152,9.83028319 90.0685149,15.4371859 103.428571,15.4371859 C111.758968,15.4371859 119.164165,13.2572797 123.863268,9.87750492 C127.972923,14.6833323 136.851923,18.0100503 147.142857,18.0100503 C154.587692,18.0100503 161.293578,16.2689787 165.989339,13.486373 C170.42996,17.7277119 178.751931,20.5829146 188.285714,20.5829146 C196.616111,20.5829146 204.021307,18.4030084 208.720411,15.0232336 C212.830065,19.8290609 221.709066,23.1557789 232,23.1557789 C244.374597,23.1557789 254.707614,20.9183828 257.161457,14.5103305 C261.063888,19.5907426 270.203975,20.5829146 280.857143,20.5829146 C291.148077,20.5829146 300.027077,17.2561966 304.136732,12.4503692 C308.835835,15.8301441 316.241032,18.0100503 324.571429,18.0100503 C334.105211,18.0100503 342.427183,15.1548476 346.867804,10.9135087 C351.563564,13.6961144 358.26945,15.4371859 365.714286,15.4371859 C379.074342,15.4371859 390.054705,9.83028319 391.309129,2.65916865 C394.950861,7.19406242 402.273867,10.2914573 410.714286,10.2914573 Z" id="path-1"></path>
    </defs>
    <g id="Symbols" stroke="none" stroke-width="1" fill="none" fill-rule="evenodd">
        <g id="wrapper" transform="translate(-2.000000, 0.000000)">
            <g transform="translate(2.000000, 0.025126)">
                <mask id="mask-2" fill="white">
                    <use xlink:href="#path-1"></use>
                </mask>
                <use id="Mask" fill="#FF7965" xlink:href="#path-1"></use>
                <path d="M38.2287946,2.7160804 L80.250558,213.28392" id="Path-12" stroke="#D66554" stroke-width="3" mask="url(#mask-2)"></path>
                <path d="M76.0845424,-2.65577889 L111.107701,213.28392" id="Path-12" stroke="#D66554" stroke-width="3" mask="url(#mask-2)"></path>
                <path d="M123.085938,2.7160804 L147.107701,213.28392" id="Path-12" stroke="#D66554" stroke-width="3" mask="url(#mask-2)"></path>
                <path d="M164.228795,2.7160804 L180.536272,213.28392" id="Path-12" stroke="#D66554" stroke-width="3" mask="url(#mask-2)"></path>
                <polyline id="Path-12" stroke="#D66554" stroke-width="3" mask="url(#mask-2)" transform="translate(420.527902, 99.849246) scale(-1, 1) translate(-420.527902, -99.849246) " points="388.892299 -13.5854271 408.009766 -4.1080402 452.163504 213.28392"></polyline>
                <path d="M358.035156,-5.68844221 L393.083426,213.28392" id="Path-12" stroke="#D66554" stroke-width="3" mask="url(#mask-2)" transform="translate(375.559291, 103.797739) scale(-1, 1) translate(-375.559291, -103.797739) "></path>
                <path d="M322.035156,2.7160804 L346.05692,213.28392" id="Path-12" stroke="#D66554" stroke-width="3" mask="url(#mask-2)" transform="translate(334.046038, 108.000000) scale(-1, 1) translate(-334.046038, -108.000000) "></path>
                <path d="M288.606585,2.7160804 L304.914062,213.28392" id="Path-12" stroke="#D66554" stroke-width="3" mask="url(#mask-2)" transform="translate(296.760324, 108.000000) scale(-1, 1) translate(-296.760324, -108.000000) "></path>
                <path d="M207.94308,5.28894472 L216.536272,215.856784" id="Path-12" stroke="#D66554" stroke-width="3" mask="url(#mask-2)"></path>
                <path d="M249.085938,5.28894472 L257.679129,215.856784" id="Path-12" stroke="#D66554" stroke-width="3" mask="url(#mask-2)" transform="translate(253.382533, 110.572864) scale(-1, 1) translate(-253.382533, -110.572864) "></path>
            </g>
        </g>
    </g>
</svg>